<svg id="_レイヤー_2" xmlns="http://www.w3.org/2000/svg" width="800" height="800" viewBox="0 0 800 800"><defs><style>.cls-2{fill:#ffd900}</style></defs><g id="_レイヤー_1-2"><path fill="none" d="M0 0h800v800H0z"/><path class="cls-2" d="M251.17 280.24c-.66-34.35 39.63-71.34 61.43-72.66 1.98-9.91 5.94-14.53 5.94-14.53-7.27-23.78 2.64-36.33 5.28-40.95-3.3-14.53 15.85-23.12 19.16-24.44 7.27-10.57 29.72-11.23 38.97 2.64 9.25 13.87-2.64 25.76-8.59 30.39 9.25 6.61 19.16 17.83 21.14 19.82 21.14 5.28 40.95 13.87 50.86 22.46s55.49 18.5 63.41 29.06c7.93 10.57 13.87 42.94-5.94 83.23-11.89 15.19-35.01 14.53-41.61 16.51-19.82 13.21-43.6 17.17-89.83 7.93-33.69-2.64-52.84-3.96-62.75-5.28s-42.94-16.51-48.22-25.1-9.91-19.16-9.25-29.06z"/><path d="M206.25 333.08c1.98-17.17 17.83-21.14 26.42-21.14s15.19 7.93 17.83 13.21c12.55.66 32.37 13.21 42.94 15.85s35.01 13.87 40.95 14.53c50.86 4.62 130.13 6.61 153.25-1.98 7.93-11.23 14.53-19.16 52.84-23.78 2.64-17.83 13.21-26.42 26.42-25.76s16.51 8.59 20.48 11.89c13.87 10.57 33.69 37.65 31.05 62.75-2.64 17.83-4.62 24.44-22.46 35.67-5.28 11.23-23.12 25.76-65.39 33.03-20.48 5.28-38.31 3.96-48.22 3.3-17.83 6.61-49.54 8.59-64.07 9.25s-60.11-2.64-89.17-2.64-73.32 0-90.5-8.59c-7.27-5.28-12.55-12.55-14.53-15.85-35.01-20.48-36.33-33.69-38.31-60.11 0-16.51 9.91-34.35 20.48-39.63z" fill="#e0e0e0"/><path class="cls-2" d="M144.16 462.55c-3.96-31.05 20.48-34.35 27.74-34.35s20.48 9.25 18.5 23.12c39.63 15.85 68.7 22.46 80.59 23.78s175.05 5.28 214.68 7.93c11.89-7.93 52.18-15.19 65.39-15.85 30.39-7.93 41.61-17.83 58.13-31.71 12.55-9.91 30.39-9.25 39.63 4.62s24.44 34.35 15.19 72.66c-9.91 23.12-35.01 52.18-48.22 56.81-13.21 4.62-23.78 9.25-30.39 9.25-15.19 13.21-34.35 20.48-70.02 17.83-13.87 8.59-40.29 17.17-100.4 13.21-42.94-1.32-85.87-5.28-125.5-11.89-12.55-3.3-40.29-1.32-62.75-9.25-8.59-3.96-13.21-9.91-14.53-11.89-34.35-15.85-66.72-32.37-77.28-66.72-9.25-35.67 4.62-43.6 9.25-47.56z"/></g></svg>