<?xml version="1.0" encoding="UTF-8"?><svg id="_レイヤー_2" xmlns="http://www.w3.org/2000/svg" width="7.5" height="10" viewBox="0 0 7.5 10"><defs><style>.cls-1{fill:#6b6b6b;}</style></defs><g id="_レイヤー_1-2"><path class="cls-1" d="m6.25,9.06c.17,0,.31-.14.31-.31V3.12h-1.56c-.35,0-.62-.28-.62-.62V.94H1.25c-.17,0-.31.14-.31.31v7.5c0,.17.14.31.31.31h5ZM0,1.25C0,.56.56,0,1.25,0h3.23c.33,0,.65.13.88.37l1.77,1.77c.23.23.37.55.37.88v5.73c0,.69-.56,1.25-1.25,1.25H1.25c-.69,0-1.25-.56-1.25-1.25V1.25Z"/></g></svg>