<svg xmlns="http://www.w3.org/2000/svg" width="48" height="42.67" viewBox="0 0 48 42.67"><defs><style>.cls-1{fill:#d70c19;}</style></defs><title>ico_alert_r</title><g id="レイヤー_2" data-name="レイヤー 2"><g id="レイヤー_2-2" data-name="レイヤー 2"><path class="cls-1" d="M47.46,36.67a4,4,0,0,1-3.46,6H4a4,4,0,0,1-3.46-6L20.54,2a4,4,0,0,1,6.92,0l20,34.67ZM24,29.5a3.84,3.84,0,1,0,3.83,3.83A3.83,3.83,0,0,0,24,29.5ZM20.36,15.72,21,27.05A1,1,0,0,0,22,28h4a1,1,0,0,0,1-.95l.62-11.33a1,1,0,0,0-1-1.05H21.36a1,1,0,0,0-1,1.05Z"/></g></g></svg>